<?xml version="1.0" standalone="no"?>
<!DOCTYPE svg PUBLIC "-//W3C//DTD SVG 20010904//EN"
 "http://www.w3.org/TR/2001/REC-SVG-20010904/DTD/svg10.dtd">
<svg version="1.0" xmlns="http://www.w3.org/2000/svg"
 width="256.000000pt" height="256.000000pt" viewBox="0 0 256.000000 256.000000"
 preserveAspectRatio="xMidYMid meet">
<metadata>
Created by potrace 1.14, written by Peter Selinger 2001-2017
</metadata>
<g transform="translate(0.000000,256.000000) scale(0.100000,-0.100000)"
fill="#000000" stroke="none">
<path d="M1526 2092 c-3 -5 -21 -13 -40 -16 -33 -6 -46 -21 -46 -54 0 -9 -17
-28 -38 -40 -44 -28 -82 -100 -82 -156 0 -25 -6 -43 -17 -52 -25 -19 -60 -17
-72 3 -9 17 -10 17 -28 0 -11 -9 -29 -17 -41 -17 -20 0 -72 -45 -72 -62 0 -13
18 -9 23 6 4 10 30 15 93 17 63 3 89 8 92 18 3 8 18 27 33 44 23 24 29 39 29
74 0 38 4 45 26 53 14 6 35 10 46 10 17 0 19 -5 15 -27 -7 -36 1 -53 24 -53
25 0 24 11 -7 70 -36 68 -31 81 33 85 41 3 53 0 58 -13 3 -9 0 -21 -8 -27 -21
-15 -30 -69 -27 -170 1 -85 10 -118 27 -101 5 4 8 56 9 114 0 148 0 149 28
156 17 4 26 15 31 36 4 16 11 32 16 35 12 8 12 55 -1 56 -5 1 -22 2 -37 4 -16
1 -35 5 -44 9 -10 4 -20 3 -23 -2z"/>
<path d="M935 1991 c-3 -5 6 -26 20 -46 20 -30 22 -41 14 -57 -13 -25 -3 -68
16 -68 10 0 15 17 17 68 l3 67 33 3 c37 4 43 27 10 36 -35 9 -106 7 -113 -3z"/>
<path d="M1080 1948 c0 -6 17 -27 39 -47 21 -20 41 -48 45 -63 3 -16 13 -28
21 -28 23 0 19 48 -5 62 -11 7 -20 17 -20 21 0 12 -57 67 -69 67 -6 0 -11 -5
-11 -12z"/>
<path d="M1010 1773 c0 -15 -3 -58 -6 -94 -6 -61 -5 -67 20 -94 14 -15 26 -34
26 -41 0 -8 12 -17 28 -20 15 -4 32 -14 37 -22 6 -7 27 -17 45 -21 27 -5 36
-12 38 -31 2 -14 11 -33 20 -43 9 -10 19 -42 22 -70 l5 -52 55 0 c42 0 55 3
55 15 0 9 -12 16 -30 18 -38 5 -43 14 -37 69 5 51 38 93 71 93 12 0 29 9 38
20 10 11 23 20 29 20 19 0 94 88 94 110 0 27 -27 25 -36 -2 -10 -34 -89 -104
-124 -112 -17 -3 -37 -11 -45 -18 -52 -47 -54 -47 -93 -8 -22 22 -40 30 -65
30 -26 0 -45 9 -75 38 l-41 37 -7 98 c-4 54 -11 100 -15 103 -5 3 -9 -7 -9
-23z"/>
<path d="M1401 1698 c-10 -25 -85 -98 -101 -98 -5 0 -24 9 -42 20 -44 27 -131
28 -126 3 2 -13 14 -19 40 -21 20 -2 44 -12 53 -23 24 -25 76 -25 100 1 10 11
23 20 28 20 17 0 88 83 85 99 -5 24 -27 24 -37 -1z"/>
<path d="M1023 1293 c-16 -6 -17 -45 -2 -60 8 -8 10 -59 7 -158 l-3 -146 25 3
c24 3 25 7 35 96 8 74 14 96 29 104 14 8 23 6 38 -10 23 -23 17 -39 -18 -52
-27 -11 -30 -27 -10 -73 20 -46 57 -78 84 -70 29 7 28 14 -8 49 -36 36 -37 46
-4 90 31 40 27 75 -11 100 -24 16 -27 15 -45 -1 -10 -9 -27 -15 -37 -13 -15 3
-19 14 -21 63 -4 76 -19 95 -59 78z"/>
<path d="M790 1273 c-16 -7 -32 -25 -51 -60 -10 -19 -9 -29 7 -58 10 -19 21
-35 25 -35 3 0 16 -9 29 -20 13 -11 29 -20 37 -20 8 0 27 -14 43 -32 28 -30
28 -33 14 -60 -13 -25 -20 -29 -51 -26 -33 3 -37 7 -48 43 -9 34 -15 40 -35
37 -52 -6 -46 -51 13 -93 52 -37 95 -38 139 -2 44 37 48 43 48 78 0 34 -45 89
-82 101 -13 3 -36 16 -51 26 -22 16 -27 27 -25 52 3 27 7 31 37 34 37 4 51 -9
51 -45 0 -25 28 -31 48 -11 19 19 14 41 -13 71 -21 22 -34 27 -73 26 -26 0
-54 -3 -62 -6z"/>
<path d="M1401 1140 l23 -40 -22 -20 c-28 -26 -28 -36 -1 -43 29 -8 82 44 77
75 -3 23 -60 68 -85 68 -11 0 -9 -9 8 -40z"/>
<path d="M1516 1154 c-3 -9 -3 -20 0 -26 7 -11 20 -59 34 -126 9 -41 41 -81
66 -82 6 0 23 9 37 20 14 11 32 20 40 20 7 0 22 -9 32 -20 25 -28 38 -25 78
15 32 32 35 41 41 115 8 87 5 100 -25 100 -21 0 -21 -3 -19 -97 2 -98 -12
-121 -54 -90 -14 11 -20 33 -25 98 -5 75 -8 84 -26 84 -18 0 -20 -7 -20 -70 0
-58 -5 -76 -24 -104 -22 -30 -26 -32 -37 -17 -6 9 -15 43 -19 74 -9 77 -29
122 -53 122 -11 0 -23 -7 -26 -16z"/>
<path d="M1299 1134 c-20 -21 -24 -36 -24 -85 0 -56 2 -61 39 -94 38 -34 66
-42 100 -29 27 10 19 34 -12 34 -45 0 -72 39 -72 105 0 30 4 55 10 55 5 0 14
9 20 20 9 17 8 20 -13 20 -13 0 -34 -12 -48 -26z"/>
</g>
</svg>
